<svg xmlns="http://www.w3.org/2000/svg" xmlns:xlink="http://www.w3.org/1999/xlink" width="840" height="385.65"><rect width="840" height="385.65" rx="5" ry="5" class="a"/><svg y="0%" x="0%"><circle cx="20" cy="20" r="6" fill="#ff5f58"/><circle cx="40" cy="20" r="6" fill="#ffbd2e"/><circle cx="60" cy="20" r="6" fill="#18c132"/></svg><svg height="325.65" viewBox="0 0 80 32.565" width="800" x="15" xmlns="http://www.w3.org/2000/svg" xmlns:xlink="http://www.w3.org/1999/xlink" y="50"><style>@keyframes i{0%{transform:translateX(-80px)}8.3%{transform:translateX(-160px)}16.7%{transform:translateX(-240px)}25%{transform:translateX(-320px)}41.7%{transform:translateX(-400px)}53.3%{transform:translateX(-480px)}70%{transform:translateX(-560px)}80%{transform:translateX(-640px)}to{transform:translateX(-720px)}}.a{fill:#282d35}.f{fill:#b9c0cb;white-space:pre}</style><g font-family="Monaco,Consolas,Menlo,'Bitstream Vera Sans Mono','Powerline Symbols',monospace" font-size="1.67"><defs><symbol id="1"><text y="1.67" class="f">mine1712@ugr-inf:~#</text><text x="20.04" y="1.67" class="f">./presentacion.sh</text></symbol><symbol id="2"><text y="1.67" class="f">[+]</text><text x="4.008" y="1.67" class="f">Cargando</text><text x="13.026" y="1.67" class="f">datos</text><text x="19.038" y="1.67" class="f">de</text><text x="22.044" y="1.67" class="f">perfil:</text><text x="30.06" y="1.67" class="f">Minerva</text><text x="38.076" y="1.67" class="f">Cebrián</text></symbol><symbol id="3"><text y="1.67" class="f">[+]</text><text x="4.008" y="1.67" class="f">Especialidad:</text><text x="18.036" y="1.67" class="f">Ingeniería</text><text x="29.058" y="1.67" class="f">del</text><text x="33.066" y="1.67" class="f">Software</text><text x="42.084" y="1.67" class="f">y</text><text x="44.088" y="1.67" class="f">ADE</text></symbol><symbol id="4"><text y="1.67" class="f">[+]</text><text x="4.008" y="1.67" class="f">Ubicación:</text><text x="15.03" y="1.67" class="f">Granada,</text><text x="24.048" y="1.67" class="f">España</text></symbol><symbol id="5"><text y="1.67" class="f">mine1712@ugr-inf:~#</text><text x="20.04" y="1.67" class="f">cat</text><text x="24.048" y="1.67" class="f">erasmus.txt</text></symbol><symbol id="6"><text y="1.67" class="f">&gt;</text><text x="2.004" y="1.67" class="f">Chulalongkorn</text><text x="16.032" y="1.67" class="f">University,</text><text x="28.056" y="1.67" class="f">Tailandia</text><text x="38.076" y="1.67" class="f">(2024)</text><text x="45.09" y="1.67" class="f">🌍</text></symbol><symbol id="7"><text y="1.67" class="f">mine1712@ugr-inf:~#</text><text x="20.04" y="1.67" class="f">check_competencias</text><text x="39.078" y="1.67" class="f">--resumen</text></symbol><symbol id="8"><text y="1.67" class="f">[INFO]</text><text x="7.014" y="1.67" class="f">Tecnologías:</text><text x="20.04" y="1.67" class="f">C++,</text><text x="25.05" y="1.67" class="f">Java,</text><text x="31.062" y="1.67" class="f">Ruby,</text><text x="37.074" y="1.67" class="f">MySQL,</text><text x="44.088" y="1.67" class="f">Excel,</text><text x="51.102" y="1.67" class="f">Canva</text></symbol><symbol id="a"><path fill="transparent" d="M0 0h80v15H0z"/></symbol><symbol id="b"><path fill="#6f7683" d="M0 0h1.102v2.171H0z"/></symbol></defs><path class="a" d="M0 0h80v32.565H0z"/><g style="animation-duration:6s;animation-iteration-count:infinite;animation-name:i;animation-timing-function:steps(1,end)"><svg width="800"><svg><use xlink:href="#a"/><use xlink:href="#b" x="-.004"/></svg><svg x="80"><use xlink:href="#a"/><use xlink:href="#b" x="-.004" y="2.146"/><use xlink:href="#1"/></svg><svg x="160"><use xlink:href="#a"/><use xlink:href="#b" x="-.004" y="4.317"/><use xlink:href="#1"/><use xlink:href="#2" y="2.171"/></svg><svg x="240"><use xlink:href="#a"/><use xlink:href="#b" x="-.004" y="6.488"/><use xlink:href="#1"/><use xlink:href="#2" y="2.171"/><use xlink:href="#3" y="4.342"/></svg><svg x="320"><use xlink:href="#a"/><use xlink:href="#b" x="-.004" y="10.83"/><use xlink:href="#1"/><use xlink:href="#2" y="2.171"/><use xlink:href="#3" y="4.342"/><use xlink:href="#4" y="6.513"/></svg><svg x="400"><use xlink:href="#a"/><use xlink:href="#b" x="-.004" y="13.001"/><use xlink:href="#1"/><use xlink:href="#2" y="2.171"/><use xlink:href="#3" y="4.342"/><use xlink:href="#4" y="6.513"/><use xlink:href="#5" y="10.855"/></svg><svg x="480"><use xlink:href="#a"/><use xlink:href="#b" x="-.004" y="17.343"/><use xlink:href="#1"/><use xlink:href="#2" y="2.171"/><use xlink:href="#3" y="4.342"/><use xlink:href="#4" y="6.513"/><use xlink:href="#5" y="10.855"/><use xlink:href="#6" y="13.026"/></svg><svg x="560"><use xlink:href="#a"/><use xlink:href="#b" x="-.004" y="19.514"/><use xlink:href="#1"/><use xlink:href="#2" y="2.171"/><use xlink:href="#3" y="4.342"/><use xlink:href="#4" y="6.513"/><use xlink:href="#5" y="10.855"/><use xlink:href="#6" y="13.026"/><use xlink:href="#7" y="17.368"/></svg><svg x="640"><use xlink:href="#a"/><use xlink:href="#b" x="-.004" y="23.856"/><use xlink:href="#1"/><use xlink:href="#2" y="2.171"/><use xlink:href="#3" y="4.342"/><use xlink:href="#4" y="6.513"/><use xlink:href="#5" y="10.855"/><use xlink:href="#6" y="13.026"/><use xlink:href="#7" y="17.368"/><use xlink:href="#8" y="19.539"/></svg><svg x="720"><use xlink:href="#a"/><use xlink:href="#b" x="-.004" y="26.027"/><use xlink:href="#1"/><use xlink:href="#2" y="2.171"/><use xlink:href="#3" y="4.342"/><use xlink:href="#4" y="6.513"/><use xlink:href="#5" y="10.855"/><use xlink:href="#6" y="13.026"/><use xlink:href="#7" y="17.368"/><use xlink:href="#8" y="19.539"/><text y="25.551" class="f">mine1712@ugr-inf:~#</text><text x="20.04" y="25.551" class="f">clear</text></svg></svg></g></g></svg></svg>